<?xml version="1.0" encoding="UTF-8"?><svg id="_レイヤー_1" xmlns="http://www.w3.org/2000/svg" viewBox="0 0 56 56"><path id="_xF8FF_" d="M28.46,14.95c2.08,0,4.69-1.45,6.24-3.38,1.41-1.75,2.43-4.2,2.43-6.64,0-.33-.03-.66-.08-.93-2.31.09-5.09,1.6-6.76,3.62-1.31,1.54-2.52,3.95-2.52,6.42,0,.36.06.72.08.85.14.03.38.06.62.06h0ZM21.14,51.46c2.84,0,4.1-1.96,7.64-1.96s4.39,1.9,7.55,1.9,5.18-2.96,7.14-5.86c2.2-3.32,3.1-6.58,3.16-6.73-.2-.06-6.14-2.57-6.14-9.59,0-6.09,4.69-8.84,4.95-9.05-3.1-4.58-7.81-4.7-9.1-4.7-3.48,0-6.32,2.17-8.11,2.17-1.93,0-4.47-2.05-7.49-2.05-5.74,0-11.56,4.89-11.56,14.12,0,5.73,2.17,11.8,4.83,15.72,2.28,3.32,4.27,6.03,7.14,6.03h-.02Z"/><rect width="56" height="56" fill="none"/></svg>