<svg id="レイヤー_1" data-name="レイヤー 1" xmlns="http://www.w3.org/2000/svg" viewBox="0 0 44 44"><g id="White-Logo-Square-"><rect id="Rectangle" width="44" height="44"/><path id="_" data-name="" d="M28.22,20.38A3.6,3.6,0,0,0,30.72,19a4.41,4.41,0,0,0,1-2.66,2.13,2.13,0,0,0,0-.37A4.07,4.07,0,0,0,29,17.45a4.15,4.15,0,0,0-1,2.57,1.19,1.19,0,0,0,0,.34ZM25.29,35c1.14,0,1.64-.79,3.06-.79s1.76.77,3,.77,2.07-1.19,2.85-2.35a10.76,10.76,0,0,0,1.27-2.69A4.18,4.18,0,0,1,33,26.1a4.34,4.34,0,0,1,2-3.63,4.29,4.29,0,0,0-3.64-1.88c-1.4,0-2.54.87-3.25.87s-1.79-.82-3-.82c-2.3,0-4.63,2-4.63,5.65a12,12,0,0,0,1.93,6.29C23.35,33.91,24.14,35,25.29,35Z" transform="translate(-6 -6)" style="fill:#fff"/></g></svg>