<svg enable-background="new 0 0 100 100" viewBox="0 0 100 100" xmlns="http://www.w3.org/2000/svg"><g clip-rule="evenodd" fill-rule="evenodd"><path d="m89.2 50.4c0-2.9-.3-5.6-.7-8.3h-38.2v15.7h21.8c-.9 5.1-3.8 9.3-8.1 12.2v10.2h13.1c7.7-7.1 12.1-17.5 12.1-29.8z" fill="#4285f4"/><path d="m50.3 90c10.9 0 20.1-3.6 26.8-9.8l-13.1-10.2c-3.6 2.4-8.3 3.9-13.7 3.9-10.5 0-19.5-7.1-22.6-16.7h-13.6v10.5c6.7 13.2 20.4 22.3 36.2 22.3z" fill="#34a853"/><path d="m27.7 57.2c-.8-2.4-1.3-5-1.3-7.7s.5-5.3 1.3-7.7v-10.5h-13.6c-2.7 5.5-4.3 11.6-4.3 18.2s1.6 12.7 4.3 18.2z" fill="#fbbc05"/><path d="m50.3 25.1c5.9 0 11.3 2 15.5 6.1l11.6-11.6c-7-6.6-16.2-10.6-27.1-10.6-15.8 0-29.5 9.1-36.2 22.3l13.5 10.5c3.2-9.6 12.2-16.7 22.7-16.7z" fill="#ea4335"/></g></svg>